<svg width="27" height="21" viewBox="0 0 27 21" fill="none" xmlns="http://www.w3.org/2000/svg">
<path d="M24.516 0.25611C24.6384 0.208871 24.7595 0.162534 24.8859 0.127512C25.4619 -0.0320805 27.1614 -0.352676 26.9876 1.4838C26.9188 2.3928 26.2946 5.57459 25.8086 9.01557L24.2552 18.5264C24.1808 18.9817 24.1425 19.4497 23.9674 19.8764C23.7894 20.3102 23.4384 20.8207 22.7557 20.9627C21.5073 21.2219 19.634 20.0537 19.2869 19.7939C19.0092 19.5989 14.0837 16.6769 12.3493 15.2489C11.8633 14.8589 11.3079 14.0802 12.4187 13.1712L19.7028 6.67798C20.5353 5.89919 21.3678 4.08119 17.899 6.28858L8.49133 12.2624C8.28751 12.3918 8.0813 12.5199 7.85142 12.5937C7.37882 12.7455 6.41181 12.92 4.99447 12.522L2.88746 11.9151C1.29154 11.4555 -0.39667 10.1403 1.12761 9.48087C1.28542 9.41259 1.46345 9.34398 1.66388 9.27537C8.54621 6.24838 16.9997 3.15764 24.516 0.25611Z" fill="#303030"/>
</svg>
