<svg width="25" height="19" viewBox="0 0 25 19" fill="none" xmlns="http://www.w3.org/2000/svg">
<path d="M14.8387 0.539925C12.7856 1.34808 11.4358 3.12455 11.3665 5.15496C11.3653 5.25844 11.2763 5.339 11.1732 5.32995L11.0881 5.32249C8.37037 5.03905 5.97755 3.72936 4.33461 1.60201C4.22336 1.45784 4.07468 1.34202 3.90234 1.2653C3.73 1.18857 3.53956 1.15341 3.34868 1.16308C3.15779 1.17274 2.97261 1.22692 2.8103 1.32059C2.64799 1.41426 2.51379 1.5444 2.42013 1.69895L2.30992 1.89493L2.25425 1.99924C1.43732 3.56393 0.902175 5.46579 1.09874 7.48144L1.13282 7.76909C1.45436 10.1535 2.83711 12.2103 5.4265 13.7528L5.53408 13.8145C5.572 13.8363 5.57025 13.8916 5.53103 13.9109C4.03693 14.6095 2.67009 14.914 1.18281 14.8592C-0.0170052 14.817 -0.460121 16.3048 0.594267 16.8379C4.68229 18.9042 9.0714 19.5416 12.8561 18.5238C17.469 17.2805 20.9821 14.0742 22.3262 9.63828L22.4705 9.11672C22.7409 8.07044 22.8932 7.00308 22.9261 5.93045C22.9284 5.70076 22.987 5.47512 23.0967 5.27333L23.3761 4.75983L23.876 3.85158L24.1191 3.39429L24.2532 3.13404C24.5543 2.53872 24.7713 2.04561 24.9054 1.6273L24.9158 1.5886C24.9195 1.5751 24.9243 1.56195 24.9304 1.54933C25.1803 0.924511 24.7418 0.11846 23.8612 0.11846L23.7226 0.125836C23.6329 0.136068 23.5447 0.156231 23.4602 0.185895L23.3624 0.225934C23.0382 0.371961 22.7042 0.498657 22.3626 0.605252L21.9581 0.726423L21.6502 0.810716C21.0969 0.952952 20.5187 0.810662 20.0094 0.551745C18.5995 -0.165094 16.8631 -0.167702 15.0785 0.452471L14.8387 0.539925Z" fill="#303030"/>
</svg>
